<svg xmlns="http://www.w3.org/2000/svg" version="1.1" xmlns:xlink="http://www.w3.org/1999/xlink" xmlns:svgjs="http://svgjs.dev/svgjs" width="128" height="128" viewBox="0 0 128 128"><g transform="matrix(0.8046875,0,0,0.8046875,12.427930694265463,1.435546875)"><svg viewBox="0 0 128 155" data-background-color="#3d3028" preserveAspectRatio="xMidYMid meet" height="155" width="128" xmlns="http://www.w3.org/2000/svg" xmlns:xlink="http://www.w3.org/1999/xlink"><g id="tight-bounds" transform="matrix(1,0,0,1,0.08956185567010522,0.25)"><svg viewBox="0 0 127.82087628865979 154.5" height="154.5" width="127.82087628865979"><g><svg viewBox="0 0 127.82087628865979 154.5" height="154.5" width="127.82087628865979"><g><svg viewBox="0 0 127.82087628865979 154.5" height="154.5" width="127.82087628865979"><g id="textblocktransform"><svg viewBox="0 0 127.82087628865979 154.5" height="154.5" width="127.82087628865979" id="textblock"><g><svg viewBox="0 0 127.82087628865979 154.5" height="154.5" width="127.82087628865979"><g transform="matrix(1,0,0,1,0,0)"><svg width="127.82087628865979" viewBox="1.9500000000000002 -37.35 33.099999999999994 39.800000000000004" height="154.5" data-palette-color="#f1ede4"><path d="M4.45-0.05L4.45-34.85 6.45-34.85 18.6-13.35 30.7-34.85 32.55-34.85 32.55-0.05 4.45-0.05ZM6.3-31.4L6.3-1.85 30.7-1.85 30.7-31.1 19.45-11.3 17.7-11.3 6.3-31.4Z" opacity="1" transform="matrix(1,0,0,1,0,0)" fill="#f1ede4" class="wordmark-text-0" data-fill-palette-color="primary" id="text-0"></path></svg></g></svg></g></svg></g></svg></g></svg></g><defs></defs></svg><rect width="127.82087628865979" height="154.5" fill="none" stroke="none" visibility="hidden"></rect></g></svg></g></svg>