<svg xmlns="http://www.w3.org/2000/svg" version="1.1" xmlns:xlink="http://www.w3.org/1999/xlink" xmlns:svgjs="http://svgjs.dev/svgjs" width="2000" height="2000" viewBox="0 0 2000 2000"><g transform="matrix(1,0,0,1,-0.28443113772425477,-0.28443113772459583)"><svg viewBox="0 0 334 334" data-background-color="#575c5f" preserveAspectRatio="xMidYMid meet" height="2000" width="2000" xmlns="http://www.w3.org/2000/svg" xmlns:xlink="http://www.w3.org/1999/xlink"><g id="tight-bounds" transform="matrix(1,0,0,1,0.04749999999998522,0.04750000000001364)"><svg viewBox="0 0 333.90454557049503 333.90454557049503" height="333.90454557049503" width="333.90454557049503"><g><svg></svg></g><g><svg viewBox="0 0 333.90454557049503 333.90454557049503" height="333.90454557049503" width="333.90454557049503"><g><path d="M0 166.952c0-92.205 74.747-166.952 166.952-166.952 92.205 0 166.952 74.747 166.953 166.952 0 92.205-74.747 166.952-166.953 166.953-92.205 0-166.952-74.747-166.952-166.953zM166.952 318.411c83.648 0 151.458-67.81 151.459-151.459 0-83.648-67.81-151.458-151.459-151.458-83.648 0-151.458 67.81-151.458 151.458 0 83.648 67.81 151.458 151.458 151.459z" data-fill-palette-color="tertiary" fill="#dedad7" stroke="transparent"></path><ellipse rx="160.27418187383762" ry="160.27418187383762" cx="166.95227278524752" cy="166.95227278524752" fill="#dedad7" stroke="transparent" stroke-width="0" fill-opacity="1" data-fill-palette-color="tertiary"></ellipse></g><g transform="matrix(1,0,0,1,87.71224748380752,71.17305217166896)"><svg viewBox="0 0 158.48005060288 191.55844122715712" height="191.55844122715712" width="158.48005060288"><g><svg viewBox="0 0 158.48005060288 191.55844122715712" height="191.55844122715712" width="158.48005060288"><g><svg viewBox="0 0 158.48005060288 191.55844122715712" height="191.55844122715712" width="158.48005060288"><g id="textblocktransform"><svg viewBox="0 0 158.48005060288 191.55844122715712" height="191.55844122715712" width="158.48005060288" id="textblock"><g><svg viewBox="0 0 158.48005060288 191.55844122715712" height="191.55844122715712" width="158.48005060288"><g transform="matrix(1,0,0,1,0,0)"><svg width="158.48005060288" viewBox="1.9500000000000002 -37.35 33.099999999999994 39.800000000000004" height="191.55844122715712" data-palette-color="#575c5f"><path d="M4.45-0.05L4.45-34.85 6.45-34.85 18.6-13.35 30.7-34.85 32.55-34.85 32.55-0.05 4.45-0.05ZM6.3-31.4L6.3-1.85 30.7-1.85 30.7-31.1 19.45-11.3 17.7-11.3 6.3-31.4Z" opacity="1" transform="matrix(1,0,0,1,0,0)" fill="#575c5f" class="wordmark-text-0" data-fill-palette-color="quaternary" id="text-0"></path></svg></g></svg></g></svg></g></svg></g></svg></g></svg></g></svg></g><defs></defs></svg><rect width="333.90454557049503" height="333.90454557049503" fill="none" stroke="none" visibility="hidden"></rect></g></svg></g></svg>